<svg width="23" height="22" viewBox="0 0 23 22" fill="none" xmlns="http://www.w3.org/2000/svg">
<path fill-rule="evenodd" clip-rule="evenodd" d="M8.99996 1.00001C9.00015 0.791458 8.93513 0.588067 8.814 0.418299C8.69287 0.248531 8.52169 0.120882 8.32442 0.0532154C8.12715 -0.014451 7.91366 -0.0187486 7.71383 0.040924C7.514 0.100597 7.33783 0.221253 7.20996 0.386009L0.209962 9.38601C0.073407 9.56155 -0.000732422 9.77761 -0.000732422 10C-0.000732422 10.2224 0.073407 10.4385 0.209962 10.614L7.20996 19.614C7.33783 19.7788 7.514 19.8994 7.71383 19.9591C7.91366 20.0188 8.12715 20.0145 8.32442 19.9468C8.52169 19.8791 8.69287 19.7515 8.814 19.5817C8.93513 19.412 9.00015 19.2086 8.99996 19V15.01C14.379 15.122 16.963 16.143 18.261 17.253C19.495 18.308 19.721 19.549 19.956 20.849L20.017 21.184C20.0618 21.4237 20.1928 21.6388 20.3851 21.7887C20.5774 21.9386 20.8179 22.0131 21.0614 21.9981C21.3048 21.9831 21.5343 21.8797 21.7068 21.7073C21.8793 21.5349 21.9828 21.3054 21.998 21.062C22.169 18.314 21.912 14.332 19.971 11.001C18.087 7.76801 14.694 5.28201 8.99996 5.02201V1.00001Z" fill="white"/>
</svg>
