<svg width="908" height="857" viewBox="0 0 908 857" fill="none" xmlns="http://www.w3.org/2000/svg">
<path d="M888.5 422L502.1 35.8L476.2 9.90002C470.299 4.03767 462.318 0.747498 454 0.747498C445.682 0.747498 437.701 4.03767 431.8 9.90002L19.4999 422C13.4531 428.023 8.6741 435.197 5.44516 443.098C2.21622 450.998 0.602738 459.466 0.699946 468C1.09995 503.2 30.3999 531.3 65.5999 531.3H108.1V857H799.9V531.3H843.3C860.4 531.3 876.5 524.6 888.6 512.5C894.558 506.561 899.279 499.499 902.488 491.724C905.698 483.948 907.334 475.612 907.3 467.2C907.3 450.2 900.6 434.1 888.5 422V422ZM510 785H398V581H510V785ZM727.9 459.3V785H574V557C574 534.9 556.1 517 534 517H374C351.9 517 334 534.9 334 557V785H180.1V459.3H84.1L454.1 89.6L477.2 112.7L824 459.3H727.9Z" fill="white"/>
</svg>
