<svg width="57" height="74" viewBox="0 0 57 74" fill="none" xmlns="http://www.w3.org/2000/svg">
<path d="M41.8594 73.6406C39.0781 73.6406 37.0625 72.9375 35.8125 71.5312C34.8438 70.4688 34.3594 69.0312 34.3594 67.2188C34.3594 65.7812 34.5781 64.125 35.0156 62.25C35.4531 60.3438 36.0938 57.8906 36.9375 54.8906C37.7812 51.8594 38.4062 49.3594 38.8125 47.3906C39.25 45.4219 39.4688 43.6094 39.4688 41.9531C39.4688 39.9219 39.0469 38.3438 38.2031 37.2188C37.2656 36.0312 35.7656 35.4375 33.7031 35.4375C32.5469 35.4375 31.4844 35.5625 30.5156 35.8125L22.8281 72H9.04688L22.0781 10.9219L36.2812 9.04688L31.5938 31.2188H32.3438C34.25 31.2188 36.0469 30.7188 37.7344 29.7188C39.4219 28.6875 40.9062 27.3125 42.1875 25.5938C43.375 23.9688 44.2969 22.1719 44.9531 20.2031C45.6406 18.2344 45.9844 16.3281 45.9844 14.4844C45.9844 13.1094 45.7656 11.8125 45.3281 10.5938C44.9219 9.375 44.3125 8.3125 43.5 7.40625C41.6562 5.40625 38.9688 4.40625 35.4375 4.40625C31.5312 4.40625 27.9844 4.9375 24.7969 6C21.6406 7.03125 18.9219 8.5625 16.6406 10.5938C14.3281 12.625 12.5625 15.0938 11.3438 18C10.125 20.9062 9.51562 24.1562 9.51562 27.75C9.51562 29.75 9.73438 31.3438 10.1719 32.5312C10.2969 32.9375 10.4531 33.2969 10.6406 33.6094C10.7656 33.8281 10.8281 34.0469 10.8281 34.2656C7.35938 34.2656 4.82812 33.5781 3.23438 32.2031C1.45312 30.7031 0.5625 28.2812 0.5625 24.9375C0.5625 22.8438 1.01562 20.7812 1.92188 18.75C2.82812 16.6875 4.10938 14.7031 5.76562 12.7969C7.32812 10.9844 9.1875 9.29688 11.3438 7.73438C13.5312 6.14062 15.8906 4.76563 18.4219 3.60938C23.7344 1.20313 29.0156 0 34.2656 0C37.8906 0 41.0781 0.421875 43.8281 1.26562C46.6094 2.07812 48.9375 3.23438 50.8125 4.73438C52.5625 6.14062 53.875 7.76562 54.75 9.60938C55.625 11.4219 56.0625 13.3438 56.0625 15.375C56.0625 18.4375 55.1719 21.4062 53.3906 24.2812C51.3906 27.4688 48.8281 29.9688 45.7031 31.7812C48.1719 32.5312 49.9062 33.7344 50.9062 35.3906C51.8438 36.9844 52.3125 38.9844 52.3125 41.3906C52.3125 43.1719 52.1094 45.0781 51.7031 47.1094C51.2969 49.1094 50.7188 51.4844 49.9688 54.2344C49.125 57.2969 48.5156 59.6406 48.1406 61.2656C47.7969 62.8594 47.625 64.3281 47.625 65.6719C47.625 67.1719 47.9531 68.5 48.6094 69.6562C49.2969 70.7812 50.2188 71.5625 51.375 72C47.5312 73.0938 44.3594 73.6406 41.8594 73.6406Z" fill="white"/>
</svg>
