<svg width="343" height="50" viewBox="0 0 343 50" fill="none" xmlns="http://www.w3.org/2000/svg">
<path d="M27.9062 49.0938C26.0521 49.0938 24.7083 48.625 23.875 47.6875C23.2292 46.9792 22.9062 46.0208 22.9062 44.8125C22.9062 43.8542 23.0521 42.75 23.3438 41.5C23.6354 40.2292 24.0625 38.5938 24.625 36.5938C25.1875 34.5729 25.6042 32.9062 25.875 31.5938C26.1667 30.2812 26.3125 29.0729 26.3125 27.9688C26.3125 26.6146 26.0312 25.5625 25.4688 24.8125C24.8438 24.0208 23.8438 23.625 22.4688 23.625C21.6979 23.625 20.9896 23.7083 20.3438 23.875L15.2188 48H6.03125L14.7188 7.28125L24.1875 6.03125L21.0625 20.8125H21.5625C22.8333 20.8125 24.0312 20.4792 25.1562 19.8125C26.2812 19.125 27.2708 18.2083 28.125 17.0625C28.9167 15.9792 29.5312 14.7812 29.9688 13.4688C30.4271 12.1562 30.6562 10.8854 30.6562 9.65625C30.6562 8.73958 30.5104 7.875 30.2188 7.0625C29.9479 6.25 29.5417 5.54167 29 4.9375C27.7708 3.60417 25.9792 2.9375 23.625 2.9375C21.0208 2.9375 18.6562 3.29167 16.5312 4C14.4271 4.6875 12.6146 5.70833 11.0938 7.0625C9.55208 8.41667 8.375 10.0625 7.5625 12C6.75 13.9375 6.34375 16.1042 6.34375 18.5C6.34375 19.8333 6.48958 20.8958 6.78125 21.6875C6.86458 21.9583 6.96875 22.1979 7.09375 22.4062C7.17708 22.5521 7.21875 22.6979 7.21875 22.8438C4.90625 22.8438 3.21875 22.3854 2.15625 21.4688C0.96875 20.4688 0.375 18.8542 0.375 16.625C0.375 15.2292 0.677083 13.8542 1.28125 12.5C1.88542 11.125 2.73958 9.80208 3.84375 8.53125C4.88542 7.32292 6.125 6.19792 7.5625 5.15625C9.02083 4.09375 10.5938 3.17708 12.2812 2.40625C15.8229 0.802083 19.3438 0 22.8438 0C25.2604 0 27.3854 0.28125 29.2188 0.84375C31.0729 1.38542 32.625 2.15625 33.875 3.15625C35.0417 4.09375 35.9167 5.17708 36.5 6.40625C37.0833 7.61458 37.375 8.89583 37.375 10.25C37.375 12.2917 36.7812 14.2708 35.5938 16.1875C34.2604 18.3125 32.5521 19.9792 30.4688 21.1875C32.1146 21.6875 33.2708 22.4896 33.9375 23.5938C34.5625 24.6562 34.875 25.9896 34.875 27.5938C34.875 28.7812 34.7396 30.0521 34.4688 31.4062C34.1979 32.7396 33.8125 34.3229 33.3125 36.1562C32.75 38.1979 32.3438 39.7604 32.0938 40.8438C31.8646 41.9062 31.75 42.8854 31.75 43.7812C31.75 44.7812 31.9688 45.6667 32.4062 46.4375C32.8646 47.1875 33.4792 47.7083 34.25 48C31.6875 48.7292 29.5729 49.0938 27.9062 49.0938ZM47.6562 48.375C44.5104 48.375 42.0833 47.5833 40.375 46C38.5625 44.3125 37.6562 41.7188 37.6562 38.2188C37.6562 36.9062 37.7917 35.4479 38.0625 33.8438C38.3125 32.2396 38.6979 30.6354 39.2188 29.0312C39.8021 27.2396 40.5417 25.5417 41.4375 23.9375C42.3542 22.3333 43.4167 20.9167 44.625 19.6875C47.4167 16.8542 50.8542 15.4375 54.9375 15.4375C57.5417 15.4375 59.4375 16.0625 60.625 17.3125C61.5417 18.2917 62 19.7083 62 21.5625C62 23.375 61.6042 25.0833 60.8125 26.6875C60.0208 28.2708 58.9271 29.6771 57.5312 30.9062C56.1354 32.1146 54.5521 33.0833 52.7812 33.8125C51.0104 34.5208 49.1771 34.9375 47.2812 35.0625C47.1771 36.1458 47.125 37 47.125 37.625C47.125 39.7083 47.5208 41.1458 48.3125 41.9375C49 42.6458 50.1458 43 51.75 43C54.0625 43 56.1771 42.375 58.0938 41.125C58.9062 40.6042 59.6875 39.9896 60.4375 39.2812C61.1875 38.5521 62.0625 37.6354 63.0625 36.5312H65.25C63.2292 39.9479 60.9062 42.6667 58.2812 44.6875C55.0521 47.1458 51.5104 48.375 47.6562 48.375ZM47.7812 32C48.9688 31.9167 50.125 31.5729 51.25 30.9688C52.375 30.3646 53.375 29.5729 54.25 28.5938C55.125 27.5938 55.8125 26.4792 56.3125 25.25C56.8125 24 57.0625 22.7292 57.0625 21.4375C57.0625 20.5833 56.9375 19.9375 56.6875 19.5C56.4583 19.0417 56.0521 18.8125 55.4688 18.8125C54.6979 18.8125 53.9167 19.1875 53.125 19.9375C52.3542 20.6875 51.6042 21.7188 50.875 23.0312C50.2083 24.2604 49.6042 25.6562 49.0625 27.2188C48.5208 28.7812 48.0938 30.375 47.7812 32ZM70.3438 48.375C67.8646 48.375 65.9375 47.75 64.5625 46.5C63.1875 45.2292 62.5 43.3438 62.5 40.8438C62.5 39.8021 62.6042 38.7708 62.8125 37.75L67.4062 16H76.625L72.0312 37.75C71.8021 38.7708 71.6875 39.5417 71.6875 40.0625C71.6875 40.7292 71.8646 41.25 72.2188 41.625C72.5729 42 73.125 42.1875 73.875 42.1875C74.875 42.1875 75.8542 41.8333 76.8125 41.125C77.7708 40.4167 78.6771 39.4375 79.5312 38.1875C80.3229 37.0417 81.0521 35.7083 81.7188 34.1875C82.4062 32.6667 82.9896 31.0938 83.4688 29.4688C83.9271 27.8854 84.2812 26.3438 84.5312 24.8438C84.8021 23.3229 84.9375 21.9792 84.9375 20.8125C84.8542 21 84.5521 21.1562 84.0312 21.2812C83.6979 21.3854 83.3229 21.4375 82.9062 21.4375C82.1771 21.4375 81.6042 21.0833 81.1875 20.375C80.7917 19.7708 80.5938 19.0417 80.5938 18.1875C80.5938 17.1458 80.9271 16.3125 81.5938 15.6875C82.2604 15.0417 83.25 14.7188 84.5625 14.7188C85.9792 14.7188 87.0312 15.2917 87.7188 16.4375C88.3021 17.3958 88.5938 18.6771 88.5938 20.2812C88.5938 22.0521 88.4375 23.9688 88.125 26.0312C87.8333 28.0938 87.3854 30.125 86.7812 32.125C85.3229 36.875 83.3542 40.6146 80.875 43.3438C77.875 46.6979 74.3646 48.375 70.3438 48.375ZM100.25 12.5312C99.5625 12.5312 98.9062 12.4062 98.2812 12.1562C97.6562 11.8854 97.1146 11.5208 96.6562 11.0625C96.1979 10.625 95.8333 10.0938 95.5625 9.46875C95.3125 8.84375 95.1875 8.1875 95.1875 7.5C95.1875 6.8125 95.3125 6.15625 95.5625 5.53125C95.8333 4.90625 96.1979 4.35417 96.6562 3.875C97.1146 3.39583 97.6562 3.03125 98.2812 2.78125C98.9062 2.51042 99.5625 2.375 100.25 2.375C100.938 2.375 101.594 2.51042 102.219 2.78125C102.844 3.03125 103.396 3.39583 103.875 3.875C104.354 4.35417 104.719 4.90625 104.969 5.53125C105.24 6.15625 105.375 6.8125 105.375 7.5C105.375 8.1875 105.24 8.84375 104.969 9.46875C104.719 10.0938 104.354 10.625 103.875 11.0625C103.396 11.5208 102.844 11.8854 102.219 12.1562C101.594 12.4062 100.938 12.5312 100.25 12.5312ZM95.9062 48.375C93.8646 48.375 92.25 47.7708 91.0625 46.5625C89.7292 45.2292 89.0625 43.2812 89.0625 40.7188C89.0625 39.5104 89.2292 38.1146 89.5625 36.5312L93.9062 16H103.125L98.5312 37.75C98.3646 38.2917 98.2812 38.9792 98.2812 39.8125C98.2812 40.6875 98.4792 41.3021 98.875 41.6562C99.2917 42.0104 99.9583 42.1875 100.875 42.1875C101.5 42.1875 102.104 42.0521 102.688 41.7812C103.292 41.4896 103.844 41.0938 104.344 40.5938C105.365 39.5729 106.135 38.2188 106.656 36.5312H109.344C108.198 39.7604 106.76 42.3333 105.031 44.25C103.573 45.8125 101.927 46.9375 100.094 47.625C98.7604 48.125 97.3646 48.375 95.9062 48.375ZM115.844 48.375C112.698 48.375 110.271 47.5833 108.562 46C106.75 44.3125 105.844 41.7188 105.844 38.2188C105.844 36.9062 105.979 35.4479 106.25 33.8438C106.5 32.2396 106.885 30.6354 107.406 29.0312C107.99 27.2396 108.729 25.5417 109.625 23.9375C110.542 22.3333 111.604 20.9167 112.812 19.6875C115.604 16.8542 119.042 15.4375 123.125 15.4375C125.729 15.4375 127.625 16.0625 128.812 17.3125C129.729 18.2917 130.188 19.7083 130.188 21.5625C130.188 23.375 129.792 25.0833 129 26.6875C128.208 28.2708 127.115 29.6771 125.719 30.9062C124.323 32.1146 122.74 33.0833 120.969 33.8125C119.198 34.5208 117.365 34.9375 115.469 35.0625C115.365 36.1458 115.312 37 115.312 37.625C115.312 39.7083 115.708 41.1458 116.5 41.9375C117.188 42.6458 118.333 43 119.938 43C122.25 43 124.365 42.375 126.281 41.125C127.094 40.6042 127.875 39.9896 128.625 39.2812C129.375 38.5521 130.25 37.6354 131.25 36.5312H133.438C131.417 39.9479 129.094 42.6667 126.469 44.6875C123.24 47.1458 119.698 48.375 115.844 48.375ZM115.969 32C117.156 31.9167 118.312 31.5729 119.438 30.9688C120.562 30.3646 121.562 29.5729 122.438 28.5938C123.312 27.5938 124 26.4792 124.5 25.25C125 24 125.25 22.7292 125.25 21.4375C125.25 20.5833 125.125 19.9375 124.875 19.5C124.646 19.0417 124.24 18.8125 123.656 18.8125C122.885 18.8125 122.104 19.1875 121.312 19.9375C120.542 20.6875 119.792 21.7188 119.062 23.0312C118.396 24.2604 117.792 25.6562 117.25 27.2188C116.708 28.7812 116.281 30.375 115.969 32ZM137.594 48.375C135.552 48.375 133.938 47.7708 132.75 46.5625C131.417 45.2292 130.75 43.2812 130.75 40.7188C130.75 39.5104 130.917 38.1146 131.25 36.5312L135.594 16H144.812L140.219 37.75C140.094 38.2708 140.031 38.8125 140.031 39.375C140.031 40.1875 140.167 40.8333 140.438 41.3125C140.75 41.8958 141.25 42.1875 141.938 42.1875C143.104 42.1875 144.156 41.6562 145.094 40.5938C145.844 39.6979 146.5 38.3438 147.062 36.5312L151.406 16H160.625L156.031 37.75C155.802 38.8333 155.688 39.6042 155.688 40.0625C155.688 40.7292 155.865 41.25 156.219 41.625C156.573 42 157.125 42.1875 157.875 42.1875C158.875 42.1875 159.854 41.8333 160.812 41.125C161.771 40.4167 162.677 39.4375 163.531 38.1875C164.323 37.0417 165.052 35.7083 165.719 34.1875C166.406 32.6667 166.99 31.0938 167.469 29.4688C167.927 27.8854 168.281 26.3438 168.531 24.8438C168.802 23.3229 168.938 21.9792 168.938 20.8125C168.854 21 168.552 21.1562 168.031 21.2812C167.698 21.3854 167.323 21.4375 166.906 21.4375C166.177 21.4375 165.604 21.0833 165.188 20.375C164.792 19.7708 164.594 19.0417 164.594 18.1875C164.594 17.1458 164.927 16.3125 165.594 15.6875C166.26 15.0417 167.25 14.7188 168.562 14.7188C169.979 14.7188 171.031 15.2917 171.719 16.4375C172.302 17.3958 172.594 18.6771 172.594 20.2812C172.594 22.0521 172.438 23.9688 172.125 26.0312C171.833 28.0938 171.385 30.125 170.781 32.125C169.323 36.875 167.354 40.6146 164.875 43.3438C161.875 46.6979 158.365 48.375 154.344 48.375C152.24 48.375 150.531 47.9271 149.219 47.0312C147.906 46.1354 147.062 44.7917 146.688 43C145.333 45.0625 143.75 46.5312 141.938 47.4062C140.646 48.0521 139.198 48.375 137.594 48.375ZM182.719 48.375C179.573 48.375 177.146 47.5833 175.438 46C173.625 44.3125 172.719 41.7188 172.719 38.2188C172.719 36.9062 172.854 35.4479 173.125 33.8438C173.375 32.2396 173.76 30.6354 174.281 29.0312C174.865 27.2396 175.604 25.5417 176.5 23.9375C177.417 22.3333 178.479 20.9167 179.688 19.6875C182.479 16.8542 185.917 15.4375 190 15.4375C192.604 15.4375 194.5 16.0625 195.688 17.3125C196.604 18.2917 197.062 19.7083 197.062 21.5625C197.062 23.375 196.667 25.0833 195.875 26.6875C195.083 28.2708 193.99 29.6771 192.594 30.9062C191.198 32.1146 189.615 33.0833 187.844 33.8125C186.073 34.5208 184.24 34.9375 182.344 35.0625C182.24 36.1458 182.188 37 182.188 37.625C182.188 39.7083 182.583 41.1458 183.375 41.9375C184.062 42.6458 185.208 43 186.812 43C189.125 43 191.24 42.375 193.156 41.125C193.969 40.6042 194.75 39.9896 195.5 39.2812C196.25 38.5521 197.125 37.6354 198.125 36.5312H200.312C198.292 39.9479 195.969 42.6667 193.344 44.6875C190.115 47.1458 186.573 48.375 182.719 48.375ZM182.844 32C184.031 31.9167 185.188 31.5729 186.312 30.9688C187.438 30.3646 188.438 29.5729 189.312 28.5938C190.188 27.5938 190.875 26.4792 191.375 25.25C191.875 24 192.125 22.7292 192.125 21.4375C192.125 20.5833 192 19.9375 191.75 19.5C191.521 19.0417 191.115 18.8125 190.531 18.8125C189.76 18.8125 188.979 19.1875 188.188 19.9375C187.417 20.6875 186.667 21.7188 185.938 23.0312C185.271 24.2604 184.667 25.6562 184.125 27.2188C183.583 28.7812 183.156 30.375 182.844 32ZM202.469 16H211.688L210.875 19.9688C212.333 18.6771 213.521 17.7604 214.438 17.2188C215.854 16.4062 217.24 16 218.594 16C219.969 16 221.073 16.4896 221.906 17.4688C222.281 17.9062 222.562 18.4167 222.75 19C222.938 19.5625 223.031 20.1667 223.031 20.8125C223.031 21.3958 222.938 21.9583 222.75 22.5C222.562 23.0417 222.281 23.5312 221.906 23.9688C221.49 24.4271 220.979 24.7917 220.375 25.0625C219.792 25.3333 219.135 25.4688 218.406 25.4688C217.844 25.4688 217.396 25.375 217.062 25.1875C216.729 25 216.469 24.7292 216.281 24.375C216.115 24.0208 216 23.6771 215.938 23.3438C215.75 22.4479 215.562 21.8542 215.375 21.5625C215.229 21.3542 215 21.25 214.688 21.25C213.792 21.25 213.031 21.4375 212.406 21.8125C211.781 22.1875 210.99 22.8125 210.031 23.6875L204.906 48H195.688L202.469 16ZM229.219 48.25C228.531 48.25 227.875 48.125 227.25 47.875C226.625 47.6042 226.083 47.2396 225.625 46.7812C225.167 46.3229 224.802 45.7812 224.531 45.1562C224.281 44.5312 224.156 43.875 224.156 43.1875C224.156 42.5 224.281 41.8438 224.531 41.2188C224.802 40.5938 225.167 40.0521 225.625 39.5938C226.083 39.1354 226.625 38.7708 227.25 38.5C227.875 38.2292 228.531 38.0938 229.219 38.0938C229.906 38.0938 230.562 38.2292 231.188 38.5C231.812 38.7708 232.365 39.1354 232.844 39.5938C233.323 40.0521 233.688 40.5938 233.938 41.2188C234.208 41.8438 234.344 42.5 234.344 43.1875C234.344 43.875 234.208 44.5312 233.938 45.1562C233.688 45.7812 233.323 46.3229 232.844 46.7812C232.365 47.2396 231.812 47.6042 231.188 47.875C230.562 48.125 229.906 48.25 229.219 48.25ZM248.219 48.375C245.073 48.375 242.646 47.5833 240.938 46C239.125 44.3125 238.219 41.7188 238.219 38.2188C238.219 36.9062 238.354 35.4479 238.625 33.8438C238.875 32.2188 239.271 30.6042 239.812 29C241.083 25.1042 242.885 22 245.219 19.6875C248.094 16.8542 251.5 15.4375 255.438 15.4375C258 15.4375 259.896 16.0521 261.125 17.2812C262.083 18.2604 262.562 19.6042 262.562 21.3125C262.562 22.8125 262.229 23.9792 261.562 24.8125C260.938 25.5833 260.135 25.9688 259.156 25.9688C258.448 25.9688 257.698 25.7188 256.906 25.2188C257.427 23.8646 257.688 22.6042 257.688 21.4375C257.688 20.625 257.531 19.9896 257.219 19.5312C256.927 19.0521 256.49 18.8125 255.906 18.8125C254.656 18.8125 253.354 19.9167 252 22.125C250.771 24.0833 249.75 26.5729 248.938 29.5938C248.104 32.5521 247.688 35.2292 247.688 37.625C247.688 39.7083 248.083 41.1458 248.875 41.9375C249.562 42.6458 250.708 43 252.312 43C254.625 43 256.74 42.375 258.656 41.125C259.469 40.6042 260.25 39.9896 261 39.2812C261.75 38.5521 262.625 37.6354 263.625 36.5312H265.812C263.792 39.9479 261.469 42.6667 258.844 44.6875C255.615 47.1458 252.073 48.375 248.219 48.375ZM272.969 48.25C269.802 48.25 267.354 47.4792 265.625 45.9375C263.688 44.2292 262.719 41.6354 262.719 38.1562C262.719 36.8438 262.854 35.3958 263.125 33.8125C263.396 32.2083 263.812 30.5938 264.375 28.9688C265.667 25.0938 267.51 22 269.906 19.6875C272.802 16.8542 276.25 15.4375 280.25 15.4375C285.729 15.4375 288.469 18.8438 288.469 25.6562V25.7188C288.594 25.7604 288.698 25.7812 288.781 25.7812H289.156C290.573 25.7812 292.25 25.3854 294.188 24.5938C295.896 23.8854 297.51 23 299.031 21.9375L299.594 23.6875C298.344 25 296.729 26.1146 294.75 27.0312C292.792 27.9479 290.625 28.6042 288.25 29C288 31.8958 287.438 34.5417 286.562 36.9375C285.688 39.3125 284.562 41.3542 283.188 43.0625C281.833 44.7292 280.281 46.0104 278.531 46.9062C276.781 47.8021 274.927 48.25 272.969 48.25ZM275.531 42.5C276.281 42.5 277.042 42.1667 277.812 41.5C278.604 40.8125 279.344 39.8646 280.031 38.6562C280.719 37.4479 281.312 36.0312 281.812 34.4062C282.312 32.7812 282.688 31.0417 282.938 29.1875C282.312 29.0208 281.865 28.7083 281.594 28.25C281.344 27.7917 281.219 27.2083 281.219 26.5C281.219 25.625 281.396 24.8958 281.75 24.3125C282.104 23.7292 282.594 23.3021 283.219 23.0312C283.135 21.6771 282.917 20.7083 282.562 20.125C282.375 19.8333 282.135 19.625 281.844 19.5C281.573 19.375 281.219 19.3125 280.781 19.3125C279.344 19.3125 277.938 20.3958 276.562 22.5625C275.292 24.5208 274.25 26.9375 273.438 29.8125C272.646 32.625 272.25 35.125 272.25 37.3125C272.25 38.375 272.302 39.2396 272.406 39.9062C272.531 40.5729 272.729 41.0938 273 41.4688C273.25 41.8438 273.573 42.1146 273.969 42.2812C274.365 42.4271 274.885 42.5 275.531 42.5ZM330.656 48.375C328.01 48.375 326.052 47.625 324.781 46.125C323.677 44.8333 323.125 43.1771 323.125 41.1562C323.125 40.1979 323.24 39.0833 323.469 37.8125C323.719 36.5417 324.083 34.9062 324.562 32.9062C325.042 30.8646 325.396 29.2396 325.625 28.0312C325.875 26.8021 326 25.7396 326 24.8438C326 22.6562 325.229 21.5625 323.688 21.5625C322.604 21.5625 321.604 22.1354 320.688 23.2812C319.917 24.2604 319.25 25.6562 318.688 27.4688L314.344 48H305.125L309.812 25.9062C309.938 25.4062 310 24.875 310 24.3125C310 23.4583 309.865 22.8021 309.594 22.3438C309.24 21.7812 308.729 21.5 308.062 21.5C306.854 21.5 305.802 22.0833 304.906 23.25C304.115 24.25 303.438 25.6562 302.875 27.4688L298.531 48H289.312L296.094 16H305.312L304.625 19.3125C305.875 17.9167 307.24 16.9271 308.719 16.3438C309.885 15.9062 311.125 15.6875 312.438 15.6875C314.229 15.6875 315.656 16.1042 316.719 16.9375C317.906 17.875 318.667 19.2917 319 21.1875C320.375 19.0625 321.958 17.5625 323.75 16.6875C325.021 16.0625 326.406 15.75 327.906 15.75C330.052 15.75 331.75 16.3125 333 17.4375C334.333 18.6667 335 20.5104 335 22.9688C335 24.3646 334.74 26.2917 334.219 28.75C334.01 29.7708 333.76 30.8021 333.469 31.8438C332.948 33.8438 332.521 35.6875 332.188 37.375C332.021 38.25 331.938 38.9583 331.938 39.5C331.938 40.3542 332.125 41.0208 332.5 41.5C332.896 41.9583 333.562 42.1875 334.5 42.1875C335.771 42.1875 336.844 41.6667 337.719 40.625C338.385 39.8333 339.104 38.4688 339.875 36.5312H342.562C340.979 41.2188 338.979 44.5 336.562 46.375C334.854 47.7083 332.885 48.375 330.656 48.375Z" fill="white"/>
</svg>
